<?xml version="1.0" standalone="no"?>
<!DOCTYPE svg PUBLIC "-//W3C//DTD SVG 20010904//EN"
 "http://www.w3.org/TR/2001/REC-SVG-20010904/DTD/svg10.dtd">
<svg version="1.0" xmlns="http://www.w3.org/2000/svg"
 width="256.000000pt" height="256.000000pt" viewBox="0 0 256.000000 256.000000"
 preserveAspectRatio="xMidYMid meet">
<metadata>
Created by potrace 1.11, written by Peter Selinger 2001-2013
</metadata>
<g transform="translate(0.000000,256.000000) scale(0.100000,-0.100000)"
fill="#000000" stroke="none">
<path d="M1205 2371 c-58 -36 -78 -67 -81 -124 -3 -65 16 -107 62 -142 19 -14
34 -23 34 -19 0 3 6 1 14 -5 11 -9 14 -41 14 -137 -1 -139 6 -125 -78 -138
-208 -31 -386 -155 -497 -347 -12 -20 -34 -72 -49 -115 -25 -70 -28 -93 -28
-204 0 -138 3 -161 39 -257 29 -75 54 -120 102 -180 18 -23 33 -45 33 -50 0
-5 -40 -48 -89 -97 -88 -88 -88 -88 -117 -74 -99 49 -225 -46 -211 -160 4 -38
34 -102 48 -102 4 0 15 -8 25 -17 21 -22 119 -24 157 -4 34 18 74 77 80 117 3
17 -1 48 -9 70 l-14 39 93 92 92 93 44 -35 c51 -41 144 -86 227 -111 43 -14
92 -18 184 -18 114 0 133 3 216 31 86 30 161 71 212 117 l23 20 93 -93 94 -94
-12 -36 c-26 -75 6 -156 76 -192 115 -59 243 36 224 165 -15 99 -133 161 -218
115 -19 -10 -31 -1 -114 83 l-94 93 45 60 c88 117 134 255 136 404 2 132 -24
235 -89 351 -31 57 -138 176 -197 220 -88 66 -245 120 -352 123 -16 0 -15 -11
-17 140 -1 103 2 127 13 127 22 0 79 48 96 80 31 60 16 143 -35 191 -44 41
-126 51 -175 20z m175 -956 c50 -11 133 -69 162 -113 40 -61 53 -104 52 -172
-1 -109 -54 -199 -149 -255 -52 -31 -150 -48 -190 -34 -11 4 -32 10 -46 13
-15 3 -37 22 -53 44 -29 43 -68 140 -61 153 3 4 2 10 -3 13 -13 8 -6 128 12
188 9 31 30 77 48 104 27 40 41 50 78 60 48 12 94 12 150 -1z"/>
</g>
</svg>
